<?xml version="1.0" encoding="utf-8"?>
<!-- Generator: Adobe Illustrator 21.1.0, SVG Export Plug-In . SVG Version: 6.00 Build 0)  -->
<svg version="1.1" id="Layer_1" xmlns="http://www.w3.org/2000/svg" xmlns:xlink="http://www.w3.org/1999/xlink" x="0px" y="0px"
	 viewBox="0 0 176.7 27" style="enable-background:new 0 0 176.7 27;" xml:space="preserve">
<style type="text/css">
	.st0{fill:url(#Shape_10_);}
	.st1{fill:url(#Shape_11_);}
	.st2{fill:url(#Shape_12_);}
	.st3{fill:#C1BFBE;}
	.st4{fill:#494849;}
	.st5{enable-background:new    ;}
	.st6{fill:#464C4F;}
	.st7{fill:#149BFF;}
	.st8{clip-path:url(#SVGID_2_);}
	.st9{clip-path:url(#SVGID_4_);fill:#FFFFFF;}
</style>
<title>Group 7</title>
<desc>Created with Sketch.</desc>
<g id="Page-1">
	<g id="Group-7">
		
			<linearGradient id="Shape_10_" gradientUnits="userSpaceOnUse" x1="-168.1188" y1="392.6336" x2="-165.8076" y2="392.5147" gradientTransform="matrix(3.4411 0 0 -22.5678 580.3112 8874.0342)">
			<stop  offset="0.2308" style="stop-color:#9B9A75"/>
			<stop  offset="0.5548" style="stop-color:#9C9B76"/>
			<stop  offset="0.6716" style="stop-color:#A09E7B"/>
			<stop  offset="0.7548" style="stop-color:#A7A583"/>
			<stop  offset="0.8221" style="stop-color:#B1AF90"/>
			<stop  offset="0.8797" style="stop-color:#C0BCA2"/>
			<stop  offset="0.9307" style="stop-color:#D2CFBA"/>
			<stop  offset="0.9757" style="stop-color:#E9E6D8"/>
			<stop  offset="1" style="stop-color:#FBF9EF"/>
		</linearGradient>
		<path id="Shape" class="st0" d="M6.3,25.8l-0.7-0.2c0,0,0.1-3.5-1.2-3.8c-0.8-0.9,0.2-41.2,3.2-0.1c0,0-1.1,0.5-1.2,1.4
			C6.2,24,6.3,25.8,6.3,25.8L6.3,25.8z"/>
		
			<linearGradient id="Shape_11_" gradientUnits="userSpaceOnUse" x1="-195.9077" y1="392.8647" x2="-194.9576" y2="391.8952" gradientTransform="matrix(5.8618 0 0 -22.3 1153.0758 8761.0996)">
			<stop  offset="0" style="stop-color:#599E4C"/>
			<stop  offset="1" style="stop-color:#498E41"/>
		</linearGradient>
		<path id="Shape_1_" class="st1" d="M6.8,22.4c0,0,6-3.9,4.6-12.2C10,4.2,6.8,2.3,6.4,1.5C6.1,1,5.7,0.1,5.7,0.1l0.2,16.6
			C5.9,16.7,5.4,21.8,6.8,22.4L6.8,22.4z"/>
		
			<linearGradient id="Shape_12_" gradientUnits="userSpaceOnUse" x1="-196.738" y1="392.5737" x2="-195.1122" y2="392.6714" gradientTransform="matrix(5.9953 0 0 -22.65 1178.9211 8904.5)">
			<stop  offset="0" style="stop-color:#4FA346"/>
			<stop  offset="0.1916" style="stop-color:#59A64A"/>
			<stop  offset="0.5207" style="stop-color:#6EB05A"/>
			<stop  offset="0.9451" style="stop-color:#8CC17B"/>
			<stop  offset="1" style="stop-color:#91C47F"/>
		</linearGradient>
		<path id="Shape_2_" class="st2" d="M5.3,22.6c0,0-5.7-3.9-5.3-10.6c0.3-6.8,4.2-10.1,5-10.8C5.6,0.7,5.6,0.5,5.7,0
			C6,0.8,5.9,11.3,6,12.5C6.2,17.3,5.7,21.8,5.3,22.6L5.3,22.6z"/>
		<path id="Shape_3_" class="st3" d="M69.7,10.5c0.3,0,1.6,0.1,2.1,0.1c1,0,1.8-0.1,3.8-0.1c1.7,0,3.1,0.4,4.1,1.3
			c1.2,1.1,1.9,2.5,1.9,4.3c0,2.5-1.2,4-2.3,4.9c-1.2,0.8-2.7,1.3-4.8,1.3c-1.1,0-3.1,0-4.8,0l0,0c-0.1-0.1,0.2-0.8,0.2-0.8
			c0.5,0,0.6,0,0.8-0.1c0.4-0.1,0.5-0.3,0.5-1c0-1.1,0-2.5,0-4.1v-4c0-0.6-0.3-0.8-0.8-0.9c-0.2,0-0.6-0.1-1.1-0.1
			C69.3,11.1,69.6,10.6,69.7,10.5L69.7,10.5z M73.5,20.9c0.4,0.3,1.2,0.5,1.9,0.5c0.9,0,1.8-0.1,2.7-1c0.9-0.8,1.5-2,1.5-4
			c0-1.9-0.7-3.4-2.2-4.3c-0.8-0.6-1.9-0.8-3.2-0.8c-0.3,0-0.7,0-0.9,0.1c-0.1,0.1-0.2,0.2-0.2,0.2c-0.1,0.4-0.1,2.9-0.1,4.5
			s0,3.8,0.1,4C73.2,20.4,73.2,20.8,73.5,20.9L73.5,20.9z"/>
		<path id="Shape_4_" class="st3" d="M83.2,10.5c0.2,0,0.7,0.1,2,0.1c1.2,0,2.2-0.1,3.4-0.1c1.4,0,3.5,0.6,3.5,2.7
			c0,1.1-0.8,1.9-1.8,2.4c-0.1,0-0.1,0.1,0,0.1c1.4,0.4,2.6,1.2,2.6,2.9c0,1.6-1,2.6-2.4,3.2c-0.9,0.4-2,0.5-3.1,0.5
			c-0.8,0-3.2-0.1-4.4,0c-0.2,0,0.1-0.6,0.2-0.8c0.3,0,0.6,0,0.8-0.1c0.5-0.1,0.5-0.2,0.6-1c0-0.6,0-2.6,0-4.1v-4.1
			c0-0.6-0.2-0.7-0.5-0.8c-0.3,0-0.8-0.1-1.2-0.1C82.8,11.1,83.1,10.6,83.2,10.5L83.2,10.5z M90.9,18.9c0-1.6-1.2-2.6-3.4-2.6h-0.9
			c-0.1,0-0.1,0.1-0.1,0.1c0,1.2,0,3.1,0.1,3.9c0.1,0.3,0.2,0.8,0.6,0.9c0.3,0.1,1,0.2,1.4,0.2C89.8,21.4,90.9,20.6,90.9,18.9
			L90.9,18.9z M86.6,11.4c-0.1,0-0.2,0.2-0.2,0.3c0,0.7,0,2.4,0,3.7c0,0,0,0.1,0.1,0.1c0.2,0,0.8,0.1,1.3,0.1c0.7,0,1.2-0.1,1.3-0.2
			c0.6-0.3,0.9-0.9,0.9-1.7c0-1.6-1.2-2.2-2.8-2.2C87.2,11.4,86.8,11.4,86.6,11.4L86.6,11.4z"/>
		<path id="Shape_5_" class="st4" d="M15.1,22.2c0,0,0-0.2,0-0.4c0-0.1,0-0.2,0-0.2c0.4-0.1,0.6-0.1,0.8-0.1
			c0.4-0.1,0.5-0.2,0.5-0.7c0.1-1,0.1-2.9,0.1-4.2v0c0-0.2,0-0.4-0.2-0.5c-0.2-0.1-0.6-0.3-1-0.4c-0.1-0.1-0.2-0.1-0.2-0.2
			s0.1-0.2,0.3-0.2c0.6-0.1,2-0.4,2.6-0.6c0,0,0.1,0.1,0.1,0.2v0.2c0,0.2-0.1,0.4-0.1,0.6c0,0.1,0.1,0.1,0.1,0.1
			c0.1,0,0.1,0,0.1-0.1c1.1-0.8,2.1-1.1,2.6-1.1c0.8,0,1.4,0.4,1.9,1.2c0.1,0.1,0.1,0.1,0.1,0.1s0.1,0,0.1-0.1c1-0.8,2-1.2,2.6-1.2
			c1.5,0,2.5,1.1,2.5,3.1v2v1.5c0,0.1,0.1,0.4,0.3,0.4c0.2,0.1,0.6,0.1,1,0.2l0,0c0,0.1,0,0.5-0.1,0.6h-0.4c-0.3,0-0.8,0-1.3,0
			c-1.1,0-1.6,0-2.1,0c-0.1-0.1-0.1-0.5,0-0.6c0.3,0,0.4-0.1,0.6-0.1c0.4-0.1,0.4-0.2,0.5-0.7c0-0.3,0-3-0.1-3.7
			c-0.1-0.7-0.6-1.5-1.7-1.5c-0.4,0-1.1,0.1-1.7,0.6c0,0.1,0,0.1,0,0.1l0,0c0,0.4,0,0.8,0,1.4v1.1v2c0,0.4,0.2,0.5,0.4,0.5
			c0.1,0,0.1,0.1,0.2,0.1c0.1,0,0.3,0,0.6,0.1c0,0,0,0.3,0,0.4c0,0.1-0.1,0.1-0.1,0.1c-0.6,0-1.1,0-2,0h-1h-0.8c0,0-0.1-0.1-0.1-0.4
			c0-0.1,0.1-0.2,0.1-0.3c0.1,0,0.1-0.1,0.2-0.1c0.2,0,0.4,0,0.5-0.1c0.3-0.1,0.4-0.2,0.4-0.6c0.1-0.9,0.1-3.2,0-3.9
			c-0.2-0.9-0.8-1.4-1.6-1.4c-0.5,0-1.1,0.2-1.7,0.6C18.1,16,18,16.2,18,16.4v1v3.4c0,0.2,0.1,0.4,0.5,0.5c0.1,0,0.2,0,0.4,0
			c0.1,0,0.2,0.1,0.3,0.1c0,0.1,0,0.5-0.1,0.6h-0.6c-0.3,0-0.8,0-1.3,0c-0.6,0-1,0-1.4,0C15.6,22.2,15.4,22.2,15.1,22.2L15.1,22.2
			L15.1,22.2z"/>
		<path id="Shape_6_" class="st4" d="M34.3,22.5c-2.8,0-3.8-2.1-3.8-4.1c0-1.4,0.5-2.4,1.7-3.2c0.8-0.5,1.7-0.8,2.5-0.8
			c2.2,0,3.7,1.6,3.7,3.8c0,1.5-0.6,2.8-1.8,3.5C36.1,22,35.2,22.5,34.3,22.5L34.3,22.5L34.3,22.5z M34,15.2c-0.3,0-0.6,0.1-0.9,0.2
			c-0.7,0.4-1,1.2-1,2.4c0,2.2,1.1,3.8,2.7,3.8c0.5,0,0.9-0.1,1.2-0.4c0.5-0.4,0.8-1.2,0.8-2.4C36.7,16.7,35.7,15.2,34,15.2L34,15.2
			L34,15.2z"/>
		<path id="Shape_7_" class="st4" d="M63.9,22.5c-2.9,0-3.9-2.1-3.9-4.1c0-1.4,0.5-2.4,1.7-3.2c0.8-0.5,1.7-0.8,2.5-0.8
			c2.2,0,3.7,1.6,3.7,3.8c0,1.5-0.6,2.8-1.8,3.5C65.7,22,64.7,22.5,63.9,22.5L63.9,22.5L63.9,22.5z M63.6,15.2
			c-0.3,0-0.6,0.1-0.9,0.2c-0.7,0.4-1,1.2-1,2.4c0,2.2,1.1,3.8,2.7,3.8c0.4,0,0.8-0.1,1.2-0.4c0.5-0.4,0.8-1.2,0.8-2.4
			C66.3,16.7,65.2,15.2,63.6,15.2L63.6,15.2L63.6,15.2z"/>
		<path id="Shape_8_" class="st4" d="M54,27c-1,0-1.8-0.2-2.4-0.7c-0.6-0.5-0.9-1.2-0.9-1.6c0-0.1,0-0.5,0.3-0.9
			c0.2-0.2,0.6-0.6,1.6-1.2c0,0,0,0,0-0.1c0,0,0,0,0-0.1c-0.8-0.3-1.1-0.8-1.1-1v0c0-0.1,0-0.2,0.1-0.3c0.1-0.1,0.3-0.2,0.5-0.3
			c0.3-0.1,0.6-0.4,0.8-0.5c0-0.1,0-0.1,0-0.1s0,0,0-0.1c-1.2-0.4-1.8-1.2-1.8-2.5c0-0.9,0.4-1.6,1.1-2.1c0.5-0.4,1.7-0.8,2.4-0.8h0
			c0.8,0,1.2,0.2,1.8,0.4c0.4,0.1,0.7,0.1,1.1,0.1c0.6,0,0.9-0.2,1.2-0.4c0,0.1,0.1,0.1,0.1,0.3c0,0.2-0.1,0.6-0.2,0.8
			c-0.2,0.2-0.5,0.3-0.8,0.3h-0.1c-0.3-0.1-0.4-0.1-0.4-0.1l-0.1,0.1V16c0,0,0,0,0,0.1c0.1,0.1,0.1,0.6,0.1,0.7c0,1.4-0.5,2-1.2,2.5
			c-0.5,0.4-1.2,0.7-2,0.8l0,0h-0.2h-0.2l0,0c-0.2,0-0.5,0.2-0.5,0.5c0,0.2,0.1,0.5,0.8,0.6c0.2,0,0.3,0,0.5,0
			c1,0.1,2.2,0.1,2.7,0.4c0.8,0.3,1.2,1,1.2,1.8c0,1.2-0.9,2.4-2.4,3.1C55.5,26.8,54.8,27,54,27L54,27L54,27z M54,22.6
			c-0.4,0-0.5,0.1-0.7,0.2c-0.7,0.5-1,0.9-1,1.4s0.2,0.8,0.6,1.2c0.5,0.4,1.2,0.6,2,0.6c1.7,0,2.5-0.9,2.5-1.9c0-0.6-0.3-1-1-1.3
			C55.8,22.7,55,22.6,54,22.6L54,22.6L54,22.6z M54,15.1c-0.9,0-1.5,0.7-1.5,1.8c0,1.1,0.5,2.4,1.9,2.4c0.2,0,0.6-0.1,0.9-0.4
			c0.3-0.3,0.6-0.9,0.6-1.5C55.9,16,55.2,15.1,54,15.1L54,15.1L54,15.1z"/>
		<path id="Shape_9_" class="st4" d="M49.4,21.5c-0.4,0-0.7-0.1-1.1-0.3c0,0-0.1-0.2-0.1-0.2c-0.1-0.6-0.1-2.2-0.1-3.4
			c0-0.9-0.1-1.7-0.5-2.2c-0.5-0.7-1.1-1-2-1c-0.8,0-1.8,0.5-2.5,1.2c0,0-0.1,0.1-0.1-0.1s0-0.6,0-0.8s-0.1-0.3-0.1-0.3
			c-0.5,0.2-2,0.6-2.6,0.7c-0.4,0.1-0.5,0.4-0.1,0.6l0,0l0,0c0.4,0.2,0.8,0.3,1,0.5c0.1,0.1,0.1,0.3,0.1,0.4c0,1.2,0,3.2,0,4.2
			c0,0.4-0.2,0.6-0.4,0.7c-0.2,0-0.4,0.1-0.7,0.1c-0.1,0.1-0.1,0.6,0,0.8c0.2,0,1.1-0.1,1.9-0.1c1.1,0,1.7,0.1,2,0.1
			c0.1-0.1,0.2-0.6,0.1-0.8c-0.3,0-0.6-0.1-0.8-0.1C43,21.4,43,21.2,43,21c0-1,0-2.8,0-4.1c0-0.4,0.1-0.6,0.2-0.6
			c0.4-0.4,1-0.6,1.5-0.6s0.9,0.2,1.2,0.4c0.3,0.3,0.5,0.8,0.5,1c0.1,0.7,0,2.1,0,3.4c0,0.7,0,0.9-0.3,0.9c-0.1,0-0.4,0.1-0.8,0.1
			c-0.1,0.1-0.1,0.6,0,0.8c0.5,0,1-0.1,1.9-0.1c1,0,1.7,0.1,2,0.1C49.5,22.2,49.5,21.7,49.4,21.5L49.4,21.5z"/>
		<g class="st5">
			<path class="st6" d="M110,13.4c-0.1-0.4-0.2-0.7-0.5-1c-0.3-0.5-1.1-1.2-2.5-1.2c-2,0-2.7,1.1-2.7,2c0,1.5,1.3,1.8,2.4,2.1
				l1.1,0.3c2,0.5,3.3,1.4,3.3,3.2c0,0.6-0.2,1.7-1.4,2.6c-0.5,0.4-1.3,0.8-2.8,0.8c-2.2,0-3.7-0.9-4.2-3.1l1.1-0.6
				c0,0.7,0.1,1,0.3,1.3c0.3,0.7,1.2,1.5,2.9,1.5c2.1,0,3.1-1.1,3.1-2.4c0-1.2-0.8-1.8-2.4-2.3l-1.3-0.3c-1.3-0.3-3.1-0.9-3.1-3
				c0-1.6,1.2-2.9,3.7-2.9c1.6,0,3.2,0.5,3.9,2.5L110,13.4z"/>
			<path class="st6" d="M114.4,20.4c0,0.4,0.1,0.9,0.6,0.9c0.4,0,0.8-0.3,1.1-0.5v1c-0.2,0.2-0.6,0.4-1.3,0.4c-0.3,0-1,0-1.2-0.7
				c-0.1-0.3-0.1-0.8-0.1-1.2v-5h-1.6v-0.8h1.6v-3.2h0.9v3.2h1.7v0.8h-1.7V20.4z"/>
			<path class="st6" d="M117.5,12.6v-1.5h0.9v1.5H117.5z M117.5,22v-7.6h0.9V22H117.5z"/>
			<path class="st6" d="M122.4,20.4c0,0.4,0.1,0.9,0.6,0.9c0.4,0,0.8-0.3,1.1-0.5v1c-0.2,0.2-0.6,0.4-1.3,0.4c-0.3,0-1,0-1.2-0.7
				c-0.1-0.3-0.1-0.8-0.1-1.2v-5h-1.6v-0.8h1.6v-3.2h0.9v3.2h1.7v0.8h-1.7V20.4z"/>
			<path class="st6" d="M131.6,20.3c-0.5,1-1.3,1.9-3.1,1.9c-2.2,0-3.5-1.6-3.5-4c0-2.5,1.5-4.1,3.7-4.1c1.6,0,2.5,0.9,2.9,1.9
				l-0.9,0.2c-0.3-0.8-1.2-1.3-2.1-1.3c-1.8,0-2.6,1.5-2.6,3.2c0,1.7,0.8,3.2,2.5,3.2c1,0,1.6-0.4,2.1-1.3L131.6,20.3z"/>
			<path class="st6" d="M137.9,22v-4.8c0-1-0.2-2.1-1.8-2.1c-1.2,0-1.7,0.7-1.9,1.1c-0.3,0.6-0.3,1.2-0.3,2.6V22h-1V10.7h1v4.9
				c0.2-0.5,0.9-1.4,2.4-1.4c0.3,0,1.4,0.1,2.1,0.9c0.4,0.6,0.5,1.2,0.5,2.5V22H137.9z"/>
		</g>
	</g>
</g>
<path class="st7" d="M174.7,25.1h-29c-1.1,0-2-0.9-2-2v-11c0-1.1,0.9-2,2-2h29c1.1,0,2,0.9,2,2v11C176.7,24.2,175.8,25.1,174.7,25.1
	z"/>
<g>
	<defs>
		<path id="SVGID_1_" d="M170.5,18.7l-0.9-3l-0.9,3H170.5z M173.2,21.1h-1.9l-0.3-1.1h-2.6l-0.3,1.1h-1.9l2.6-7.1h1.8L173.2,21.1z
			 M166,15.4V14h-5.4v1.4h1.8v5.7h1.8v-5.7H166z M154.7,21.1h5.5v-1.4h-3.8V18h3.2v-1.3h-3.2v-1.3h3.5V14h-5.2V21.1z M149.3,19.8
			h1.2c0.6,0,1.4,0,1.4-0.8c0-0.9-0.7-0.9-1.1-0.9h-1.5V19.8z M149.3,16.8h1.3c0.4,0,1.1,0,1.1-0.8c0-0.7-0.6-0.7-0.9-0.7h-1.5V16.8
			z M147.6,21.1V14h3.3c1.9,0,2.5,0.8,2.5,1.8c0,1.2-1.1,1.5-1.5,1.6c0.7,0.1,1.8,0.4,1.8,1.6c0,1.3-1.2,2-2.6,2H147.6z"/>
	</defs>
	<clipPath id="SVGID_2_">
		<use xlink:href="#SVGID_1_"  style="overflow:visible;"/>
	</clipPath>
	<g class="st8">
		<defs>
			<rect id="SVGID_3_" x="-10.3" y="-5.9" width="1366" height="1348"/>
		</defs>
		<clipPath id="SVGID_4_">
			<use xlink:href="#SVGID_3_"  style="overflow:visible;"/>
		</clipPath>
		<rect x="142.6" y="9" class="st9" width="35.5" height="17.1"/>
	</g>
</g>
</svg>
